<svg width="32" height="32" viewBox="0 0 32 32" fill="none" xmlns="http://www.w3.org/2000/svg">
<rect x="17" y="20" width="10" height="11" rx="2" fill="#333333"/>
<path d="M24.3955 29H19.4346V27.9258L21.7197 25.5234C22.2829 24.8822 22.5645 24.3727 22.5645 23.9951C22.5645 23.6891 22.4977 23.4564 22.3643 23.2969C22.2308 23.1374 22.0371 23.0576 21.7832 23.0576C21.5326 23.0576 21.3291 23.165 21.1729 23.3799C21.0166 23.5915 20.9385 23.8568 20.9385 24.1758H19.2881C19.2881 23.7396 19.3971 23.3376 19.6152 22.9697C19.8333 22.5986 20.1361 22.3089 20.5234 22.1006C20.9108 21.8923 21.3438 21.7881 21.8223 21.7881C22.5905 21.7881 23.1813 21.9655 23.5947 22.3203C24.0114 22.6751 24.2197 23.1846 24.2197 23.8486C24.2197 24.1286 24.1676 24.402 24.0635 24.6689C23.9593 24.9326 23.7965 25.2109 23.5752 25.5039C23.3571 25.7936 23.0039 26.1826 22.5156 26.6709L21.5977 27.7305H24.3955V29Z" fill="white"/>
</svg>
